<svg t="1655682812776" class="icon" viewBox="0 0 1024 1024" version="1.1" xmlns="http://www.w3.org/2000/svg" p-id="4273" width="200" height="200"><path d="M240.736 632.504H122.52s-16.888-64.744-16.888-135.112 16.888-135.112 16.888-135.112h118.216" fill="#B2EDA6" p-id="4274"></path><path d="M240.736 648.504H122.52c-7.28 0-13.648-4.912-15.48-11.96-0.712-2.72-17.408-67.552-17.408-139.152s16.696-136.424 17.408-139.152a15.992 15.992 0 0 1 15.48-11.96h118.216a16 16 0 0 1 0 32h-105.52c-4.672 21.512-13.592 69.136-13.592 119.112 0 50.088 8.92 97.632 13.592 119.112h105.52a16 16 0 0 1 0 32zM730.52 591.768a24 24 0 0 1-17.088-40.856c0.648-0.68 21.232-22.6 21.232-53.512 0-31.4-20.904-53.184-21.112-53.4a23.984 23.984 0 0 1 0-33.936 23.984 23.984 0 0 1 33.936 0c1.44 1.432 35.176 35.768 35.176 87.336s-33.736 85.904-35.176 87.336a23.92 23.92 0 0 1-16.968 7.032zM865.648 690.288a24 24 0 0 1-15.096-42.672c2.752-2.256 61.448-51.656 61.448-150.216 0-99.896-60.752-149.664-61.36-150.152a24.008 24.008 0 0 1 29.984-37.488c3.24 2.592 79.376 64.92 79.376 187.632s-76.136 185.04-79.376 187.632a23.896 23.896 0 0 1-14.976 5.264z" fill="#3C663E" p-id="4275"></path><path d="M800.2 637.136a24 24 0 0 1-15.136-42.64c1.936-1.608 39.344-33.6 39.344-97.096 0-63.792-37.76-95.784-39.368-97.12a24.096 24.096 0 0 1-3.392-33.704 23.904 23.904 0 0 1 33.528-3.656c2.336 1.864 57.232 46.792 57.232 134.472s-54.888 132.608-57.232 134.472a23.808 23.808 0 0 1-14.976 5.272z" fill="#3C663E" p-id="4276"></path><path d="M128 871.904a381.336 81.488 0 1 0 762.672 0 381.336 81.488 0 1 0-762.672 0Z" fill="#B8CBCD" p-id="4277"></path><path d="M552.296 797.856l-320-167.264s-16.888-57.192-16.888-133.192c0-67.552 16.888-133.192 16.888-133.192l320-169.104" fill="#B2EDA6" p-id="4278"></path><path d="M552.288 813.856c-2.504 0-5.032-0.584-7.4-1.824l-320-167.264a16.016 16.016 0 0 1-7.936-9.648c-0.72-2.424-17.544-60.304-17.544-137.72 0-68.792 16.68-134.416 17.392-137.184a16 16 0 0 1 8.016-10.152l320-169.104a15.992 15.992 0 1 1 14.96 28.288L246.184 374.96c-4.128 18.16-14.784 70.08-14.784 122.432 0 58.52 10.376 105.696 14.536 122.272l313.76 164.008a16 16 0 0 1-7.408 30.184z" fill="#3C663E" p-id="4279"></path><path d="M656 497.4c0 167.896-39.696 304-88.672 304-48.968 0-88.664-136.104-88.664-304s35.48-304 84.448-304S656 329.504 656 497.4z" fill="#B2EDA6" p-id="4280"></path><path d="M567.328 817.4c-68.712 0-104.664-160.984-104.664-320 0-154.12 31.432-320 100.448-320 68.16 0 108.888 162.704 108.888 320 0 159.016-35.952 320-104.672 320z m-4.216-608c-28.584 0-68.448 109.568-68.448 288 0 175.808 43.04 288 72.664 288 29.632 0 72.672-112.192 72.672-288 0-173.136-46.28-288-76.888-288z" fill="#3C663E" p-id="4281"></path><path d="M235.936 428.504H122.52a24 24 0 1 1 0-48h107.36l261.256-140.688a24 24 0 0 1 22.76 42.264L247.312 425.64a24.032 24.032 0 0 1-11.376 2.864z" fill="#FFFFFF" p-id="4282"></path><path d="M494.056 749.032c-3.744 0-7.536-0.872-11.088-2.728l-252.88-132.016H122.52a24 24 0 1 1 0-48h113.456c3.864 0 7.68 0.936 11.104 2.72l258.104 134.736a24 24 0 0 1-11.128 45.288z" fill="#3C663E" p-id="4283"></path><path d="M494.072 421.4c41.976 0 76 34.024 76 76s-34.024 76-76 76" fill="#FFFFFF" p-id="4284"></path><path d="M494.072 589.4a16 16 0 0 1 0-32c33.088 0 60-26.912 60-60s-26.912-60-60-60a16 16 0 0 1 0-32c50.728 0 92 41.272 92 92s-41.264 92-92 92z" fill="#3C663E" p-id="4285"></path><path d="M565.848 825.4c-8.512 0-16.88-2.144-24.872-6.376L230.08 656.504H122.52a24 24 0 0 1-23.224-17.944c-0.72-2.768-17.664-68.552-17.664-141.168s16.944-138.4 17.664-141.168a24 24 0 0 1 23.224-17.944h107.464l302.24-159.72a57.928 57.928 0 0 1 11.872-6.024 51.248 51.248 0 0 1 17.536-3.152c75.92 0 116.888 168.992 116.888 328 0 157.984-35.256 328.016-112.672 328.016zM141.696 608.504h94.272c3.872 0 7.688 0.936 11.12 2.728l316.232 165.304c0.8 0.424 1.784 0.856 2.528 0.856 19.344 0 64.672-95.264 64.672-280 0-181.88-48.896-280-68.888-280a3.136 3.136 0 0 0-0.912 0.184l-0.224 0.08c-0.36 0.136-1.136 0.48-2.312 1.288a23.96 23.96 0 0 1-2.416 1.464L247.152 383.504a23.936 23.936 0 0 1-11.216 2.784H141.712c-4.776 23.288-12.08 66.272-12.08 111.112 0 44.984 7.296 87.872 12.064 111.104z" fill="#3C663E" p-id="4286"></path><path d="M565.848 817.4c-68.712 0-104.664-160.984-104.664-320 0-154.12 31.432-320 100.448-320 68.16 0 108.888 162.704 108.888 320 0 159.016-35.952 320-104.672 320z m-4.216-608c-28.584 0-68.448 109.568-68.448 288 0 175.808 43.04 288 72.664 288 29.632 0 72.672-112.192 72.672-288 0-173.136-46.28-288-76.888-288z" fill="#3C663E" p-id="4287"></path><path d="M232.296 630.592s-16.888-57.192-16.888-133.192c0-67.552 16.888-133.192 16.888-133.192" fill="#B2EDA6" p-id="4288"></path><path d="M232.288 646.592a16 16 0 0 1-15.336-11.472c-0.72-2.424-17.544-60.304-17.544-137.72 0-68.792 16.68-134.416 17.392-137.184a16 16 0 1 1 30.992 7.976c-0.168 0.64-16.384 64.584-16.384 129.208 0 72.84 16.072 128.112 16.232 128.664a15.992 15.992 0 0 1-15.352 20.528z" fill="#3C663E" p-id="4289"></path></svg>